<svg width="27" height="24" viewBox="0 0 27 24" fill="none" xmlns="http://www.w3.org/2000/svg">
<path d="M21.3511 5.95765C20.593 5.01218 18.7582 3.06781 16.1747 2.62484C15.2255 2.46762 14.2598 2.79387 13.4996 3.47843C12.7406 2.83437 11.7745 2.5039 10.8211 2.66515C7.45875 3.24218 5.34516 6.38421 5.25656 6.52015C4.92564 7.02124 5.02322 7.72578 5.47277 8.09374C5.64615 8.23582 5.85598 8.31233 6.07141 8.31204C6.38385 8.31204 6.69115 8.15384 6.88901 7.85351C6.90614 7.82712 8.58452 5.32648 11.1289 4.8896C11.4434 4.84456 11.7608 4.92101 12.0384 5.09974L9.585 7.88421C9.06188 8.46077 8.73703 9.19202 8.73703 10.0545C8.73703 10.8748 9.02441 11.6455 9.54534 12.2244C10.1039 12.8061 10.7958 13.0827 11.5341 13.0827C12.2723 13.0827 12.9659 12.7633 13.4878 12.1831L13.9666 11.6511L19.2063 16.3808C19.3038 16.4687 19.3183 16.6269 19.2274 16.7544L18.0592 18.4301C17.9814 18.5356 17.8377 18.5517 17.7573 18.48L16.8199 17.6039L15.715 18.9047C15.6161 19.0394 15.4896 19.0717 15.4237 19.079C15.3538 19.0863 15.2312 19.0849 15.1363 18.9984L13.769 17.7019L13.1077 18.3889L12.989 18.5266C12.7425 18.8621 12.3946 19.0732 12.0069 19.1172C11.6074 19.1554 11.237 19.0352 10.9733 18.7993L7.18453 14.9905H4.05V6.0139H0V17.9951L2.7 17.997C3.19528 17.997 3.60998 17.6827 3.84497 17.2405H6.40322L9.65419 20.5058C10.2811 21.0748 11.0489 21.3748 11.8462 21.3748C11.9675 21.3748 12.0901 21.369 12.2114 21.3543C12.786 21.2884 13.3256 21.0701 13.7922 20.7215L13.8304 20.7596C14.3379 21.2225 14.9813 21.4351 15.6314 21.3587C16.1879 21.2942 16.6979 21.029 17.062 20.6391C17.9517 21.0229 19.0064 20.749 19.646 19.8671L20.8141 18.1913C21.5933 17.1216 21.4457 15.5438 20.4832 14.6752L15.4081 10.0927L15.7616 9.69982C16.1571 9.26032 16.1571 8.5481 15.7616 8.10888C15.3661 7.66938 14.7255 7.66938 14.3298 8.10888L12.0572 10.6311C11.7787 10.9452 11.2936 10.9452 11.0152 10.6311C10.8754 10.4772 10.7989 10.2722 10.7989 10.0541C10.7989 9.83431 10.8754 9.62918 11.0217 9.46671L14.6461 5.35859C14.9756 4.99085 15.4278 4.80781 15.867 4.88843C18.3877 5.32062 20.0942 7.8289 20.111 7.85515C20.2413 8.04992 20.4175 8.18074 20.6105 8.24778H22.95V16.4556C22.95 17.2839 23.5545 17.9579 24.262 17.9579L27 17.9998V6.00453L21.3511 5.95765ZM2.025 16.4998C1.65586 16.4998 1.35 16.1602 1.35 15.7503C1.35 15.3342 1.65586 15.0008 2.025 15.0008C2.39414 15.0008 2.7 15.3373 2.7 15.7545C2.7 16.1623 2.39414 16.4998 2.025 16.4998ZM24.975 16.4998C24.6059 16.4998 24.3 16.1602 24.3 15.7503C24.3 15.3342 24.6059 15.0008 24.975 15.0008C25.3441 15.0008 25.65 15.3344 25.65 15.7503C25.65 16.1623 25.3463 16.4998 24.975 16.4998Z" fill="#1A911B"/>
</svg>
