<svg width="32" height="32" viewBox="0 0 32 32" fill="none" xmlns="http://www.w3.org/2000/svg">
<path d="M19.6935 16.5333C19.8935 16.6267 20.1201 16.6667 20.3335 16.6667C20.7735 16.6667 21.1868 16.4933 21.5068 16.1867L24.4135 13.3333H25.6668C27.6935 13.3333 29.3335 11.6933 29.3335 9.66666V6.33332C29.3335 4.30666 27.6935 2.66666 25.6668 2.66666H19.6668C17.6401 2.66666 16.0001 4.30666 16.0001 6.33332V9.66666C16.0001 11.3467 17.1335 12.76 18.6668 13.2V15C18.6668 15.6667 19.0801 16.2667 19.6935 16.5333ZM18.0001 6.33332C18.0001 5.41332 18.7468 4.66666 19.6668 4.66666H25.6668C26.5868 4.66666 27.3335 5.41332 27.3335 6.33332V9.66666C27.3335 10.5867 26.5868 11.3333 25.6668 11.3333H23.5868L20.6668 14.2V11.3333H19.6668C18.7468 11.3333 18.0001 10.5867 18.0001 9.66666V6.33332ZM10.6668 18C8.09347 18 6.00014 15.9067 6.00014 13.3333C6.00014 10.76 8.09347 8.66666 10.6668 8.66666C13.2401 8.66666 15.3335 10.76 15.3335 13.3333C15.3335 15.9067 13.2401 18 10.6668 18ZM10.6668 10.6667C9.20014 10.6667 8.00014 11.8667 8.00014 13.3333C8.00014 14.8 9.20014 16 10.6668 16C12.1335 16 13.3335 14.8 13.3335 13.3333C13.3335 11.8667 12.1335 10.6667 10.6668 10.6667ZM10.6668 29.3333C7.92014 29.3333 5.81347 28.5867 4.40014 27.1067C2.61881 25.2347 2.66281 22.8747 2.66681 22.6307V22.6133C2.66681 21.1867 3.86681 20 5.33347 20H16.0001C17.4668 20 18.6668 21.2 18.6668 22.6667L18.6681 22.6747C18.6721 22.844 18.7281 25.2213 16.9348 27.1067C15.5201 28.5867 13.4135 29.3333 10.6668 29.3333ZM5.33347 22C4.96014 22 4.66681 22.2933 4.66681 22.6667V22.6733C4.66681 22.8 4.64414 24.4707 5.86681 25.7467C6.88014 26.8 8.49347 27.3333 10.6668 27.3333C12.8401 27.3333 14.4668 26.7867 15.4801 25.72C16.6975 24.4507 16.6695 22.7973 16.6668 22.7093V22.7067C16.6668 22.2933 16.3601 21.9867 16.0001 21.9867H5.33347V22Z" fill="#1A911B"/>
</svg>
