<svg width="32" height="32" viewBox="0 0 32 32" fill="none" xmlns="http://www.w3.org/2000/svg">
<path fill-rule="evenodd" clip-rule="evenodd" d="M26.6668 5.33334H5.3335C4.97987 5.33334 4.64074 5.47381 4.39069 5.72386C4.14064 5.97391 4.00016 6.31305 4.00016 6.66667V25.3333C4.00016 25.687 4.14064 26.0261 4.39069 26.2761C4.64074 26.5262 4.97987 26.6667 5.3335 26.6667H26.6668C27.0205 26.6667 27.3596 26.5262 27.6096 26.2761C27.8597 26.0261 28.0002 25.687 28.0002 25.3333V6.66667C28.0002 6.31305 27.8597 5.97391 27.6096 5.72386C27.3596 5.47381 27.0205 5.33334 26.6668 5.33334ZM5.3335 2.66667C4.27263 2.66667 3.25521 3.0881 2.50507 3.83824C1.75492 4.58839 1.3335 5.60581 1.3335 6.66667V25.3333C1.3335 26.3942 1.75492 27.4116 2.50507 28.1618C3.25521 28.9119 4.27263 29.3333 5.3335 29.3333H26.6668C27.7277 29.3333 28.7451 28.9119 29.4953 28.1618C30.2454 27.4116 30.6668 26.3942 30.6668 25.3333V6.66667C30.6668 5.60581 30.2454 4.58839 29.4953 3.83824C28.7451 3.0881 27.7277 2.66667 26.6668 2.66667H5.3335ZM8.00016 9.33334H10.6668V12H8.00016V9.33334ZM14.6668 9.33334C14.3132 9.33334 13.9741 9.47381 13.724 9.72386C13.474 9.97391 13.3335 10.313 13.3335 10.6667C13.3335 11.0203 13.474 11.3594 13.724 11.6095C13.9741 11.8595 14.3132 12 14.6668 12H22.6668C23.0205 12 23.3596 11.8595 23.6096 11.6095C23.8597 11.3594 24.0002 11.0203 24.0002 10.6667C24.0002 10.313 23.8597 9.97391 23.6096 9.72386C23.3596 9.47381 23.0205 9.33334 22.6668 9.33334H14.6668ZM10.6668 14.6667H8.00016V17.3333H10.6668V14.6667ZM13.3335 16C13.3335 15.6464 13.474 15.3072 13.724 15.0572C13.9741 14.8071 14.3132 14.6667 14.6668 14.6667H22.6668C23.0205 14.6667 23.3596 14.8071 23.6096 15.0572C23.8597 15.3072 24.0002 15.6464 24.0002 16C24.0002 16.3536 23.8597 16.6928 23.6096 16.9428C23.3596 17.1929 23.0205 17.3333 22.6668 17.3333H14.6668C14.3132 17.3333 13.9741 17.1929 13.724 16.9428C13.474 16.6928 13.3335 16.3536 13.3335 16ZM10.6668 20H8.00016V22.6667H10.6668V20ZM13.3335 21.3333C13.3335 20.9797 13.474 20.6406 13.724 20.3905C13.9741 20.1405 14.3132 20 14.6668 20H22.6668C23.0205 20 23.3596 20.1405 23.6096 20.3905C23.8597 20.6406 24.0002 20.9797 24.0002 21.3333C24.0002 21.687 23.8597 22.0261 23.6096 22.2761C23.3596 22.5262 23.0205 22.6667 22.6668 22.6667H14.6668C14.3132 22.6667 13.9741 22.5262 13.724 22.2761C13.474 22.0261 13.3335 21.687 13.3335 21.3333Z" fill="#1A911B"/>
</svg>
