<svg width="34" height="34" viewBox="0 0 34 34" fill="none" xmlns="http://www.w3.org/2000/svg">
<path d="M9 24.2L1 19.4L9 14.6L17 19.4V28.2L9 33V24.2Z" stroke="#1A911B" stroke-width="2" stroke-linecap="round" stroke-linejoin="round"/>
<path d="M1 19.4V28.2L9 33M9 24.272L17 19.424M25 24.2L17 19.4M25 24.2V33M25 24.2L33 19.4M17 19.4L25 14.6M17 19.4V10.6M25 14.6L33 19.4M25 14.6V5.8M33 19.4V28.2L25 33M25 33L17 28.2M17 10.6L9 5.8L17 1L25 5.8M17 10.6L25 5.8M9 5.848V14.576" stroke="#1A911B" stroke-width="2" stroke-linecap="round" stroke-linejoin="round"/>
</svg>
