<svg width="32" height="32" viewBox="0 0 32 32" fill="none" xmlns="http://www.w3.org/2000/svg">
<path d="M26.6668 16V7.66532C26.6669 7.56008 26.6462 7.45585 26.606 7.35861C26.5657 7.26137 26.5066 7.17303 26.4322 7.09866L22.2348 2.90132C22.0849 2.75125 21.8816 2.66684 21.6695 2.66666H6.1335C5.92132 2.66666 5.71784 2.75094 5.56781 2.90097C5.41778 3.051 5.3335 3.25448 5.3335 3.46666V28.5333C5.3335 28.7455 5.41778 28.949 5.56781 29.099C5.71784 29.249 5.92132 29.3333 6.1335 29.3333H17.3335M10.6668 13.3333H21.3335M10.6668 7.99999H16.0002M10.6668 18.6667H14.6668" stroke="#1A911B" stroke-width="2.25" stroke-linecap="round" stroke-linejoin="round"/>
<path d="M21.3335 2.66666V7.19999C21.3335 7.41216 21.4178 7.61565 21.5678 7.76568C21.7178 7.9157 21.9213 7.99999 22.1335 7.99999H26.6668M26.6562 20.1667L30.0642 21.032C30.4188 21.1227 30.6682 21.4453 30.6575 21.8107C30.4282 29.488 26.0002 30.6667 26.0002 30.6667C26.0002 30.6667 21.5722 29.488 21.3428 21.8107C21.3387 21.6328 21.3952 21.4588 21.503 21.3173C21.6108 21.1758 21.7636 21.0752 21.9362 21.032L25.3442 20.1667C25.7748 20.0573 26.2255 20.0573 26.6562 20.1667Z" stroke="#1A911B" stroke-width="2.25" stroke-linecap="round" stroke-linejoin="round"/>
</svg>
