<svg width="24" height="24" viewBox="0 0 24 24" fill="none" xmlns="http://www.w3.org/2000/svg">
<path d="M6.6665 2V4H4.6665V5.33333H6.6665V7.33333H7.99984V5.33333H9.99984V4H7.99984V2H6.6665Z" fill="#1A911B"/>
<path fill-rule="evenodd" clip-rule="evenodd" d="M4.66667 0C4.13623 0 3.62753 0.210714 3.25245 0.585787C2.87738 0.960859 2.66667 1.46957 2.66667 2V2.66667H0V15.3333H14.6667V2.66667H12V2C12 1.46957 11.7893 0.960859 11.4142 0.585787C11.0391 0.210714 10.5304 0 10 0H4.66667ZM10 9.33333C10.5304 9.33333 11.0391 9.12262 11.4142 8.74755C11.7893 8.37247 12 7.86377 12 7.33333V6.66667H13.3333V14H10V10H4.66667V14H1.33333V6.66667H2.66667V7.33333C2.66667 7.86377 2.87738 8.37247 3.25245 8.74755C3.62753 9.12262 4.13623 9.33333 4.66667 9.33333H10ZM4 2C4 1.82319 4.07024 1.65362 4.19526 1.5286C4.32029 1.40357 4.48986 1.33333 4.66667 1.33333H10C10.1768 1.33333 10.3464 1.40357 10.4714 1.5286C10.5964 1.65362 10.6667 1.82319 10.6667 2V7.33333C10.6667 7.51014 10.5964 7.67971 10.4714 7.80474C10.3464 7.92976 10.1768 8 10 8H4.66667C4.48986 8 4.32029 7.92976 4.19526 7.80474C4.07024 7.67971 4 7.51014 4 7.33333V2ZM1.33333 4H2.66667V5.33333H1.33333V4ZM13.3333 5.33333H12V4H13.3333V5.33333ZM8.66667 11.3333V14H6V11.3333H8.66667ZM16 14.6667C16 13.9594 16.281 13.2811 16.781 12.781C17.2811 12.281 17.9594 12 18.6667 12C19.3739 12 20.0522 12.281 20.5523 12.781C21.0524 13.2811 21.3333 13.9594 21.3333 14.6667C21.3333 15.3739 21.0524 16.0522 20.5523 16.5523C20.0522 17.0524 19.3739 17.3333 18.6667 17.3333C17.9594 17.3333 17.2811 17.0524 16.781 16.5523C16.281 16.0522 16 15.3739 16 14.6667ZM18.6667 13.3333C18.313 13.3333 17.9739 13.4738 17.7239 13.7239C17.4738 13.9739 17.3333 14.313 17.3333 14.6667C17.3333 15.0203 17.4738 15.3594 17.7239 15.6095C17.9739 15.8595 18.313 16 18.6667 16C19.0203 16 19.3594 15.8595 19.6095 15.6095C19.8595 15.3594 20 15.0203 20 14.6667C20 14.313 19.8595 13.9739 19.6095 13.7239C19.3594 13.4738 19.0203 13.3333 18.6667 13.3333ZM18.6667 18C16.8867 18 13.3333 18.9747 13.3333 20.9093V22.6667H7.33333C6.84733 22.6667 6.532 22.4913 6.33133 22.2653C6.12 22.0273 6 21.6913 6 21.3333V18.9427L8.19533 21.138L9.138 20.1953L5.33333 16.3907L1.52867 20.1953L2.47133 21.138L4.66667 18.9427V21.3333C4.66667 21.9753 4.88 22.6393 5.33533 23.1513C5.80133 23.6753 6.486 24 7.33333 24H24V20.9093C24 18.9747 20.4467 18 18.6667 18ZM14.8627 20.578C14.674 20.768 14.6667 20.872 14.6667 20.9093V22.6667H22.6667V20.9093C22.6667 20.872 22.66 20.768 22.4707 20.578C22.2707 20.376 21.934 20.1553 21.4667 19.9513C20.5253 19.5387 19.3733 19.3333 18.6667 19.3333C17.96 19.3333 16.808 19.54 15.8667 19.9507C15.3993 20.1547 15.0633 20.376 14.8627 20.578Z" fill="#1A911B"/>
</svg>
