<svg width="41" height="41" viewBox="0 0 41 41" fill="none" xmlns="http://www.w3.org/2000/svg">
<path d="M21.0039 15.3998C19.9523 15.296 18.8944 15.5197 17.9749 16.0403C17.0555 16.5609 16.3194 17.353 15.8675 18.3082C15.4156 19.2633 15.27 20.3348 15.4505 21.3759C15.6311 22.4169 16.1291 23.3768 16.8762 24.1239C17.6234 24.8711 18.5832 25.369 19.6243 25.5496C20.6654 25.7302 21.7369 25.5846 22.692 25.1327C23.6471 24.6808 24.4392 23.9447 24.9599 23.0252C25.4805 22.1057 25.7042 21.0478 25.6003 19.9963C25.4819 18.8175 24.9596 17.716 24.1219 16.8782C23.2842 16.0405 22.1826 15.5182 21.0039 15.3998ZM33.3439 20.5C33.3406 21.0571 33.2997 21.6133 33.2214 22.1648L36.8417 25.0044C36.9994 25.1351 37.1056 25.3174 37.1415 25.519C37.1774 25.7206 37.1407 25.9284 37.0379 26.1055L33.613 32.0312C33.5089 32.2066 33.3464 32.3397 33.1539 32.4069C32.9614 32.4741 32.7513 32.4713 32.5607 32.3988L28.9652 30.951C28.7669 30.8721 28.5522 30.8435 28.3402 30.868C28.1282 30.8924 27.9255 30.9691 27.7504 31.0911C27.2017 31.469 26.6251 31.8047 26.0256 32.0953C25.8371 32.1869 25.674 32.3235 25.5509 32.4931C25.4277 32.6626 25.3481 32.8599 25.3193 33.0675L24.7803 36.9024C24.7449 37.1049 24.6403 37.2889 24.4843 37.4228C24.3283 37.5568 24.1307 37.6324 23.9251 37.6367H17.0752C16.8731 37.6332 16.6781 37.561 16.5225 37.4319C16.3669 37.3027 16.2599 37.1245 16.2192 36.9264L15.6811 33.0971C15.6508 32.8872 15.5692 32.6881 15.4435 32.5174C15.3178 32.3467 15.1518 32.2096 14.9604 32.1185C14.3615 31.8295 13.7869 31.4929 13.2419 31.112C13.0674 30.9905 12.8654 30.9145 12.6542 30.8906C12.443 30.8666 12.2291 30.8957 12.0319 30.975L8.43719 32.422C8.24669 32.4946 8.03671 32.4976 7.84422 32.4305C7.65174 32.3634 7.4891 32.2305 7.38497 32.0553L3.96003 26.1295C3.85706 25.9524 3.82026 25.7446 3.85619 25.543C3.89211 25.3413 3.99843 25.159 4.15622 25.0284L7.216 22.6261C7.38363 22.493 7.51538 22.3202 7.59929 22.1233C7.68319 21.9264 7.7166 21.7117 7.69647 21.4986C7.66764 21.1646 7.65003 20.8315 7.65003 20.4976C7.65003 20.1637 7.66684 19.8354 7.69647 19.5086C7.7144 19.2968 7.67935 19.0839 7.5945 18.8891C7.50965 18.6942 7.37765 18.5235 7.2104 18.3923L4.15221 15.99C3.99699 15.8587 3.89291 15.6771 3.85821 15.4768C3.82351 15.2765 3.8604 15.0704 3.96243 14.8945L7.38737 8.96875C7.49138 8.79337 7.65396 8.66034 7.84646 8.59309C8.03895 8.52585 8.24901 8.52872 8.4396 8.60119L12.0351 10.049C12.2334 10.1279 12.4481 10.1565 12.6602 10.132C12.8722 10.1076 13.0748 10.0309 13.2499 9.90887C13.7986 9.531 14.3752 9.19531 14.9748 8.90469C15.1633 8.81308 15.3263 8.67647 15.4495 8.50692C15.5726 8.33738 15.6522 8.14011 15.6811 7.93254L16.22 4.0976C16.2554 3.89507 16.36 3.71111 16.516 3.57718C16.672 3.44324 16.8697 3.36763 17.0752 3.36328H23.9251C24.1273 3.36678 24.3222 3.43904 24.4778 3.56815C24.6334 3.69726 24.7404 3.87553 24.7811 4.07357L25.3193 7.90291C25.3495 8.11277 25.4311 8.31191 25.5568 8.48263C25.6826 8.65334 25.8485 8.79035 26.04 8.88147C26.6388 9.17051 27.2134 9.50712 27.7584 9.88805C27.9329 10.0095 28.1349 10.0855 28.3461 10.1094C28.5574 10.1334 28.7712 10.1043 28.9684 10.025L32.5631 8.57797C32.7536 8.50543 32.9636 8.50244 33.1561 8.56953C33.3486 8.63662 33.5112 8.76949 33.6154 8.94473L37.0403 14.8705C37.1433 15.0476 37.1801 15.2554 37.1441 15.457C37.1082 15.6587 37.0019 15.841 36.8441 15.9716L33.7843 18.3739C33.616 18.5066 33.4834 18.6792 33.3988 18.8761C33.3142 19.073 33.2802 19.288 33.2998 19.5014C33.3263 19.8329 33.3439 20.1661 33.3439 20.5Z" stroke="#1A911B" stroke-width="2.5625" stroke-linecap="round" stroke-linejoin="round"/>
</svg>
