<svg width="32" height="32" viewBox="0 0 32 32" fill="none" xmlns="http://www.w3.org/2000/svg">
<path d="M11.1733 16L14.3867 19.2267L20.8267 12.7733" stroke="#1A911B" stroke-width="2.6875" stroke-linecap="round" stroke-linejoin="round"/>
<path d="M14.3333 3.26668C15.2533 2.48001 16.76 2.48001 17.6933 3.26668L19.8 5.08001C20.2 5.42668 20.9467 5.70668 21.48 5.70668H23.7467C25.16 5.70668 26.32 6.86668 26.32 8.28001V10.5467C26.32 11.0667 26.6 11.8267 26.9467 12.2267L28.76 14.3333C29.5467 15.2533 29.5467 16.76 28.76 17.6933L26.9467 19.8C26.6 20.2 26.32 20.9467 26.32 21.48V23.7467C26.32 25.16 25.16 26.32 23.7467 26.32H21.48C20.96 26.32 20.2 26.6 19.8 26.9467L17.6933 28.76C16.7733 29.5467 15.2667 29.5467 14.3333 28.76L12.2267 26.9467C11.8267 26.6 11.08 26.32 10.5467 26.32H8.24001C6.82667 26.32 5.66667 25.16 5.66667 23.7467V21.4667C5.66667 20.9467 5.38667 20.2 5.05334 19.8L3.25334 17.68C2.48001 16.76 2.48001 15.2667 3.25334 14.3467L5.05334 12.2267C5.38667 11.8267 5.66667 11.08 5.66667 10.56V8.26668C5.66667 6.85335 6.82667 5.69335 8.24001 5.69335H10.5467C11.0667 5.69335 11.8267 5.41335 12.2267 5.06668L14.3333 3.26668Z" stroke="#1A911B" stroke-width="2.6875" stroke-linecap="round" stroke-linejoin="round"/>
</svg>
