<svg width="32" height="32" viewBox="0 0 32 32" fill="none" xmlns="http://www.w3.org/2000/svg">
<path d="M24.0535 18.0667C23.4935 18.6133 23.1735 19.4 23.2535 20.24C23.3735 21.68 24.6935 22.7333 26.1335 22.7333H28.6668V24.32C28.6668 27.08 26.4135 29.3333 23.6535 29.3333H8.34683C5.58683 29.3333 3.3335 27.08 3.3335 24.32V15.3467C3.3335 12.5867 5.58683 10.3333 8.34683 10.3333H23.6535C26.4135 10.3333 28.6668 12.5867 28.6668 15.3467V17.2667H25.9735C25.2268 17.2667 24.5468 17.56 24.0535 18.0667Z" stroke="#1A911B" stroke-width="2.2" stroke-linecap="round" stroke-linejoin="round"/>
<path d="M3.3335 16.5467V10.4533C3.3335 8.86667 4.30683 7.45334 5.78683 6.89334L16.3735 2.89334C16.7571 2.74879 17.17 2.69948 17.5768 2.74964C17.9837 2.7998 18.3723 2.94794 18.7093 3.18134C19.0462 3.41473 19.3215 3.72642 19.5116 4.08963C19.7016 4.45285 19.8006 4.85675 19.8002 5.26667V10.3333M9.3335 16H18.6668M30.0788 18.6267V21.3733C30.0788 22.1067 29.4922 22.7067 28.7455 22.7333H26.1322C24.6922 22.7333 23.3722 21.68 23.2522 20.24C23.1722 19.4 23.4922 18.6133 24.0522 18.0667C24.5455 17.56 25.2255 17.2667 25.9722 17.2667H28.7455C29.4922 17.2933 30.0788 17.8933 30.0788 18.6267Z" stroke="#1A911B" stroke-width="2.2" stroke-linecap="round" stroke-linejoin="round"/>
</svg>
