<svg width="57" height="39" viewBox="0 0 57 39" fill="none" xmlns="http://www.w3.org/2000/svg">
<path d="M1.875 13.5833V7.66667C1.875 6.09747 2.49836 4.59254 3.60795 3.48295C4.71754 2.37336 6.22247 1.75 7.79167 1.75H13.7083M1.875 13.5833C5.81846 13.5833 13.7083 11.2167 13.7083 1.75M1.875 13.5833V25.4167M13.7083 1.75H43.2917M1.875 25.4167V31.3333C1.875 32.9025 2.49836 34.4075 3.60795 35.517C4.71754 36.6266 6.22247 37.25 7.79167 37.25H13.7083M1.875 25.4167C5.81846 25.4167 13.7083 27.7833 13.7083 37.25M55.125 13.5833V7.66667C55.125 6.09747 54.5016 4.59254 53.392 3.48295C52.2825 2.37336 50.7775 1.75 49.2083 1.75H43.2917M55.125 13.5833C51.1815 13.5833 43.2917 11.2167 43.2917 1.75M55.125 13.5833V25.4167M55.125 25.4167V31.3333C55.125 32.9025 54.5016 34.4075 53.392 35.517C52.2825 36.6266 50.7775 37.25 49.2083 37.25H43.2917M55.125 25.4167C51.1815 25.4167 43.2917 27.7833 43.2917 37.25M43.2917 37.25H13.7083" stroke="#1A911B" stroke-width="2.80263" stroke-linecap="round" stroke-linejoin="round"/>
<path d="M28.5007 25.4167C31.7683 25.4167 34.4173 22.7677 34.4173 19.5C34.4173 16.2323 31.7683 13.5833 28.5007 13.5833C25.233 13.5833 22.584 16.2323 22.584 19.5C22.584 22.7677 25.233 25.4167 28.5007 25.4167Z" stroke="#1A911B" stroke-width="2.80263" stroke-linecap="round" stroke-linejoin="round"/>
</svg>
